<?xml version="1.0" standalone="no"?>
<!DOCTYPE svg PUBLIC "-//W3C//DTD SVG 20010904//EN"
 "http://www.w3.org/TR/2001/REC-SVG-20010904/DTD/svg10.dtd">
<svg version="1.0" xmlns="http://www.w3.org/2000/svg"
 width="100" height="100" viewBox="0 0 1752.000000 1752.000000"
 preserveAspectRatio="xMidYMid meet" style="fill='#0270D7'">
<metadata>
Created by potrace 1.16, written by Peter Selinger 2001-2019
</metadata>
<g transform="translate(0.000000,1752.000000) scale(0.100000,-0.100000)"
fill="#000000" stroke="none">
<path d="M6883 11678 c-4 -7 -9 -1378 -11 -3045 l-3 -3033 65 0 66 0 -2 3043
-3 3042 -52 3 c-34 2 -54 -1 -60 -10z"/>
<path d="M4091 10640 l-315 -5 -43 -150 c-24 -82 -52 -183 -63 -223 -22 -84
-26 -92 -44 -92 -8 0 -63 -20 -122 -45 -60 -25 -117 -45 -128 -45 -20 0 -297
142 -383 196 l-52 33 -58 -62 c-32 -34 -136 -142 -233 -240 -148 -151 -173
-180 -164 -195 6 -9 44 -78 84 -152 40 -74 88 -160 106 -191 l34 -57 -45 -73
c-25 -40 -55 -98 -66 -129 -11 -30 -25 -60 -31 -67 -12 -15 -70 -32 -305 -92
l-183 -46 -1 -333 c-2 -269 1 -336 11 -342 8 -5 77 -25 154 -44 297 -76 320
-83 327 -102 38 -100 74 -184 90 -210 24 -39 24 -74 1 -105 -10 -13 -51 -89
-91 -169 -41 -80 -82 -156 -92 -169 l-19 -24 242 -243 c213 -214 244 -242 258
-229 8 7 100 61 205 118 l190 104 130 -64 c71 -35 137 -68 145 -72 19 -10 29
-42 91 -270 27 -102 55 -191 61 -198 8 -11 76 -13 337 -11 l325 3 27 90 c15
50 44 151 65 225 20 74 42 141 48 149 5 7 60 37 122 66 61 29 114 57 118 64 4
6 14 11 21 11 12 0 201 -100 383 -202 l54 -30 211 213 c279 282 262 262 244
291 -43 67 -207 382 -207 396 0 9 20 66 45 126 25 59 45 116 45 126 0 25 17
36 85 54 33 9 92 25 130 36 39 11 103 29 143 39 40 11 80 25 88 32 12 10 14
62 12 342 l-3 331 -30 8 c-137 36 -364 103 -391 116 -20 9 -38 27 -45 46 -6
17 -29 73 -50 124 -22 51 -39 101 -39 111 0 17 169 324 211 383 10 15 19 30
19 34 0 17 -456 464 -472 464 -23 0 -68 -23 -266 -134 -148 -82 -155 -85 -181
-71 -40 20 -214 85 -229 85 -18 0 -43 63 -95 245 -53 186 -73 236 -90 233 -6
-2 -153 -5 -326 -8z m199 -761 c90 -13 243 -57 316 -89 169 -75 353 -217 455
-351 170 -224 234 -379 274 -661 13 -94 13 -122 0 -222 -15 -122 -22 -154 -61
-281 -29 -91 -131 -280 -184 -340 -20 -22 -54 -65 -76 -95 -23 -30 -83 -89
-135 -131 -171 -139 -403 -233 -653 -264 -112 -14 -136 -14 -243 0 -297 39
-565 163 -729 337 -213 226 -332 486 -363 793 -10 96 -9 126 8 240 52 341 182
585 423 794 73 63 121 94 223 145 255 126 484 164 745 125z"/>
<path d="M4121 9124 c-23 -29 -23 -31 -125 -409 -42 -154 -87 -320 -101 -370
-34 -124 -33 -168 4 -194 45 -32 85 -28 109 12 11 17 61 183 111 367 50 184
102 376 116 425 30 110 31 135 4 169 -29 37 -89 37 -118 0z"/>
<path d="M3346 8923 c-121 -119 -229 -229 -239 -245 -12 -18 -16 -35 -12 -50
8 -25 387 -413 449 -459 48 -36 72 -36 108 -2 55 52 46 68 -136 252 -90 91
-169 176 -175 188 -25 48 -15 62 164 243 154 155 175 181 175 209 0 41 -41 81
-83 81 -25 0 -63 -33 -251 -217z"/>
<path d="M4517 9129 c-24 -14 -48 -64 -40 -86 3 -10 84 -97 179 -194 188 -190
194 -200 152 -255 -12 -16 -92 -101 -179 -189 -141 -144 -157 -163 -152 -188
7 -34 56 -77 90 -77 21 0 74 47 245 218 121 119 228 233 239 253 l18 37 -28
38 c-16 22 -123 132 -238 247 -178 176 -213 207 -239 207 -16 0 -37 -5 -47
-11z"/>
<path d="M11640 10162 c-100 -7 -262 -36 -334 -59 -379 -119 -672 -462 -781
-913 -16 -63 -37 -146 -48 -184 -18 -62 -20 -102 -21 -360 -1 -242 2 -304 16
-366 10 -41 24 -115 33 -165 31 -187 123 -417 223 -560 87 -124 139 -172 327
-303 58 -41 240 -101 369 -123 130 -21 363 -27 408 -10 14 5 65 16 114 25 113
19 266 64 371 109 172 73 398 216 451 285 25 33 25 33 9 85 -9 29 -34 81 -54
117 -45 77 -211 250 -240 250 -11 0 -58 -25 -104 -56 -170 -115 -385 -200
-561 -224 -200 -28 -391 65 -502 243 -95 152 -136 363 -136 699 0 232 12 362
47 513 42 180 110 301 208 371 141 100 354 100 510 -1 116 -74 194 -269 195
-487 0 -99 8 -113 77 -134 123 -36 288 -28 396 20 74 33 139 108 161 186 20
70 23 248 7 321 -37 163 -95 266 -224 398 -94 96 -204 167 -347 224 -168 66
-423 111 -570 99z"/>
<path d="M8695 10144 c-131 -16 -183 -27 -295 -66 -87 -31 -214 -98 -285 -151
-347 -262 -531 -748 -511 -1352 7 -216 5 -197 23 -319 13 -98 49 -252 80 -351
8 -27 50 -115 92 -194 67 -128 87 -157 171 -244 177 -185 345 -274 624 -331
317 -64 665 -13 928 136 234 133 379 310 497 606 22 56 43 119 47 139 4 21 15
72 26 113 18 71 26 138 48 395 9 105 6 152 -19 425 -9 96 -48 279 -75 358
-102 289 -226 474 -409 611 -132 99 -343 189 -494 211 -40 5 -104 15 -142 20
-88 13 -167 11 -306 -6z m386 -557 c214 -104 318 -343 340 -783 28 -527 -43
-855 -224 -1035 -83 -82 -124 -103 -237 -122 -184 -30 -311 5 -426 118 -76 75
-124 172 -165 332 -26 100 -32 148 -40 318 -11 257 -11 267 0 475 8 148 14
192 41 285 55 193 139 322 252 391 79 48 105 53 268 51 125 -2 139 -4 191 -30z"/>
<path d="M13445 10110 c-99 -3 -185 -8 -192 -13 -6 -4 -14 -25 -18 -46 -4 -22
-6 -619 -6 -1328 0 -1572 -1 -1525 10 -1542 6 -10 47 -16 142 -22 190 -12
1049 -12 1139 -1 337 43 525 121 697 289 187 183 287 381 333 658 6 39 18 93
25 120 17 58 19 122 18 455 0 208 -3 261 -22 350 -11 58 -21 115 -21 127 0 50
-75 267 -133 383 -53 106 -74 137 -146 212 -221 233 -439 328 -825 358 -137
11 -651 11 -1001 0z m805 -533 c210 -5 259 -15 353 -74 120 -76 214 -247 252
-456 8 -45 19 -107 25 -137 6 -30 11 -154 12 -275 0 -181 -4 -242 -22 -345
-61 -354 -194 -545 -410 -589 -30 -6 -164 -12 -298 -14 l-242 -2 0 946 c0 520
2 948 5 950 2 3 33 4 67 2 35 -1 151 -4 258 -6z"/>
</g>
</svg>
